<?xml version="1.0" encoding="utf-8"?>
<!-- Generator: Adobe Illustrator 25.0.1, SVG Export Plug-In . SVG Version: 6.00 Build 0)  -->
<svg version="1.0" id="katman_1" xmlns="http://www.w3.org/2000/svg" xmlns:xlink="http://www.w3.org/1999/xlink" x="0px" y="0px"
	 viewBox="0 0 800 600" style="enable-background:new 0 0 800 600;" xml:space="preserve">
<g>
	<polygon points="435.6,356.9 435.6,243.1 416.8,243.1 374.4,334.7 331.9,243.1 313.2,243.1 313.2,356.9 329,356.9 329,274.6 
		367.1,356.9 381.5,356.9 419.6,274.6 419.6,356.9 	"/>
	<path d="M253.4,289.3c-9.6-0.1-33.1,1.2-47.2,14.2c-7.1,6.6-10.6,15-10.6,25c0,10.7,4.2,19,12.6,24.4c6.6,4.2,15.7,6.5,26.4,6.5
		c12.2,0,24.5-2.8,31.3-5.7c4.9-2.1,9.7-4.7,14.4-8.1l0.2,11.1h15.8l0.1-58.4c-0.1-2.2-0.2-13.7-0.5-17.8
		c-1.1-18.3-10.7-40.2-50.6-40.2c-37.6,0-45.4,28.6-46.2,31.9l-1.4,5.8H214l1-3.4c0.9-3.1,6.7-18.6,30.4-18.6
		c23,0,33.6,7.8,34.7,25.4c0.2,2.2,0.2,4.6,0.2,7.5l-9.8,0.1C262.8,289.3,254,289.3,253.4,289.3z M280.6,304.7c0,6-0.1,12.7-0.2,20
		c-2.6,2.8-10.1,10.2-20.6,14.6c-9,3.7-32.3,7.4-42.8,0.6c-3.7-2.4-5.5-6-5.5-11.3c0-5.7,1.8-10.1,5.7-13.6c9.6-9,28.4-10,36.1-10
		c1.2,0,1.9,0,2.4,0.1L280.6,304.7z"/>
	<polygon points="601.5,418.2 154.2,418.2 154.2,181.7 601.5,181.7 601.5,220.1 616.5,220.1 616.5,166.9 139.2,166.9 139.2,433 
		616.5,433 616.5,379.9 601.5,379.9 	"/>
	<path d="M503.6,256.2c12.3,0,23.7,6.2,31.3,17l0.5,0.7h18.1l-1.3-2.6c-9.8-19-28.4-30.8-48.6-30.8c-30.6,0-55.6,26.6-55.6,59.4
		s24.9,59.4,55.6,59.4c20.2,0,38.8-11.8,48.6-30.9l1.3-2.6h-18.1l-0.5,0.7c-7.6,10.8-19,17-31.3,17c-21.9,0-39.6-19.6-39.6-43.7
		C463.9,275.9,481.7,256.2,503.6,256.2z"/>
	<polygon points="616.4,292.8 616.4,249.8 601.7,249.8 601.7,292.8 557.9,292.8 557.9,307.2 601.7,307.2 601.7,350.2 616.4,350.2 
		616.4,307.2 660.3,307.2 660.3,292.8 	"/>
</g>
</svg>
