<svg role="img" viewBox="0 0 500 500" xmlns="http://www.w3.org/2000/svg" id="Bereal--Streamline-Simple-Icons" height="500" width="500">
  <desc>
    Bereal Streamline Icon: https://streamlinehq.com
  </desc>
  <title>BeReal</title>
  <path d="M135.4375 223.47916666666666c12.354166666666666 0 21.437499999999996 4.083333333333333 27.229166666666664 12.229166666666666 5.8125 8.1875 8.708333333333332 17.854166666666664 8.708333333333332 28.979166666666664v6.5H118.20833333333333a20.208333333333332 20.208333333333332 0 0 0 7.145833333333334 12.416666666666666c3.7916666666666665 3.083333333333333 8.791666666666666 4.645833333333333 14.958333333333332 4.645833333333333 3.583333333333333 0 6.8125 -0.47916666666666663 9.666666666666666 -1.375 3.3958333333333335 -1.1458333333333333 6.75 -2.4791666666666665 9.999999999999998 -4l6.187499999999999 15.270833333333332a36.041666666666664 36.041666666666664 0 0 1 -13.416666666666666 6.166666666666666c-5.25 1.3125 -9.583333333333334 1.9374999999999998 -12.916666666666666 1.9374999999999998 -13.666666666666666 0 -24.416666666666664 -3.7499999999999996 -32.291666666666664 -11.1875 -7.854166666666666 -7.499999999999999 -11.770833333333332 -17.5 -11.770833333333332 -30.020833333333332 0 -12.562499999999998 3.5416666666666665 -22.625 10.625 -30.208333333333332 7.125 -7.583333333333333 16.791666666666668 -11.354166666666666 29.041666666666664 -11.354166666666666Zm184.0625 0c12.354166666666666 0 21.416666666666664 4.083333333333333 27.229166666666664 12.229166666666666 5.791666666666667 8.1875 8.6875 17.854166666666664 8.6875 28.979166666666664v6.5h-53.166666666666664c0.7916666666666666 4.895833333333333 3.333333333333333 9.3125 7.166666666666666 12.416666666666666 3.7916666666666665 3.083333333333333 8.770833333333332 4.645833333333333 14.958333333333332 4.645833333333333 3.5625 0 6.791666666666667 -0.47916666666666663 9.666666666666666 -1.375a94.375 94.375 0 0 0 9.999999999999998 -4l6.187499999999999 15.270833333333332a36 36 0 0 1 -13.416666666666666 6.166666666666666 55.62499999999999 55.62499999999999 0 0 1 -12.916666666666666 1.9374999999999998c-13.666666666666666 0 -24.4375 -3.7499999999999996 -32.291666666666664 -11.1875 -7.854166666666666 -7.499999999999999 -11.791666666666664 -17.5 -11.791666666666664 -30.020833333333332 0 -12.562499999999998 3.5416666666666665 -22.625 10.666666666666666 -30.208333333333332 7.083333333333333 -7.583333333333333 16.770833333333332 -11.354166666666666 29.020833333333332 -11.354166666666666Zm80.72916666666666 0.8541666666666666c20.291666666666664 0 33.39583333333333 10.458333333333332 33.39583333333333 26.25v53.729166666666664h-21.39583333333333v-11.6875h-0.41666666666666663c-4.479166666666666 8.020833333333334 -12.833333333333332 12.916666666666666 -23.145833333333332 12.916666666666666 -15.75 0 -26.354166666666664 -9.854166666666666 -26.354166666666664 -23.666666666666664v-0.16666666666666666c0 -14.229166666666666 11.041666666666666 -22.562499999999996 30.520833333333332 -23.83333333333333l19.395833333333332 -1.1458333333333333v-4.8125c0 -6.979166666666667 -4.520833333333333 -11.270833333333334 -12.875 -11.270833333333334 -7.979166666666666 0 -12.812499999999998 3.7499999999999996 -13.833333333333334 8.770833333333332l-0.14583333333333331 0.6249999999999999h-19.562499999999996l0.08333333333333333 -0.8333333333333333c1.1666666666666665 -14.499999999999998 13.604166666666666 -24.874999999999996 34.33333333333333 -24.874999999999996Zm99.77083333333331 58.33333333333333v21.645833333333332h-21.666666666666668v-21.645833333333332H500ZM41.291666666666664 193.91666666666666c10.729166666666666 0 19.458333333333332 2.375 26.187499999999996 7.083333333333333 6.708333333333333 4.6875 10.083333333333332 12.645833333333332 10.083333333333332 23.749999999999996 0 4.125 -0.9583333333333333 7.833333333333333 -2.8541666666666665 11.125 -1.8749999999999998 3.333333333333333 -4.375 6.166666666666666 -7.395833333333332 8.541666666666666 4.999999999999999 2.6041666666666665 9.083333333333332 6.124999999999999 12.291666666666666 10.541666666666666 3.1874999999999996 4.4375 4.791666666666667 10.0625 4.791666666666667 16.875 0 10.1875 -3.5625 18.145833333333332 -10.666666666666666 23.874999999999996 -7.083333333333333 5.729166666666667 -16.5625 8.604166666666666 -28.375 8.604166666666666H0V193.91666666666666h41.291666666666664Zm181.29166666666666 0c12.041666666666664 0 22.333333333333332 2.7708333333333335 30.895833333333332 8.291666666666666 8.562499999999998 5.520833333333333 12.854166666666666 14.0625 12.854166666666666 25.645833333333332 0 6.8125 -1.7708333333333333 12.687499999999998 -5.291666666666666 17.625a35.70833333333333 35.70833333333333 0 0 1 -13.583333333333334 11.4375l27.166666666666668 47.39583333333333h-22.437499999999996l-23.416666666666668 -42.18749999999999a75.54166666666666 75.54166666666666 0 0 1 -7.645833333333333 0.31249999999999994h-12.187499999999998v41.87499999999999H187.95833333333331V193.91666666666666h34.62499999999999ZM467.66666666666663 193.75v110.5625h-22.416666666666668V193.75h22.416666666666668Zm-55.416666666666664 76.27083333333333 -16.1875 1.0208333333333333c-8.270833333333334 0.5208333333333334 -12.604166666666666 4 -12.604166666666666 9.583333333333334v0.14583333333333331c0 5.770833333333334 4.770833333333333 9.208333333333332 12.166666666666666 9.208333333333332 9.583333333333334 0 16.604166666666668 -6.124999999999999 16.604166666666668 -14.333333333333332l0.020833333333333332 -5.625ZM45.20833333333333 255.9375H20.979166666666664v31.020833333333332h22.75c5.625 0 10.166666666666666 -1.3125 13.583333333333334 -3.9166666666666665a12.958333333333332 12.958333333333332 0 0 0 5.125 -11.041666666666666c0 -5.208333333333333 -1.5833333333333333 -9.166666666666666 -4.708333333333333 -11.916666666666664 -3.145833333333333 -2.75 -7.333333333333332 -4.145833333333333 -12.520833333333332 -4.145833333333333Zm89.74999999999999 -14.458333333333332a15.625 15.625 0 0 0 -10.895833333333334 3.958333333333333c-2.916666666666667 2.6666666666666665 -4.833333333333333 6.5625 -5.6875 11.625h33c-1.0833333333333333 -5.270833333333333 -3.0416666666666665 -9.208333333333332 -5.854166666666667 -11.749999999999998a15.208333333333332 15.208333333333332 0 0 0 -10.5625 -3.833333333333333Zm184.04166666666666 0a15.625 15.625 0 0 0 -10.895833333333334 3.958333333333333c-2.916666666666667 2.6666666666666665 -4.8125 6.5625 -5.6875 11.625h33.02083333333333c-1.1041666666666665 -5.270833333333333 -3.0416666666666665 -9.208333333333332 -5.854166666666667 -11.749999999999998a15.208333333333332 15.208333333333332 0 0 0 -10.583333333333332 -3.833333333333333Zm-97.06249999999999 -30.020833333333332h-13v33.75h13.333333333333332c6.270833333333333 0 11.479166666666666 -1.2499999999999998 15.604166666666666 -3.7916666666666665 4.125 -2.5416666666666665 6.166666666666666 -6.75 6.166666666666666 -12.583333333333332 0 -6.187499999999999 -1.9374999999999998 -10.625 -5.833333333333334 -13.3125 -3.9166666666666665 -2.7083333333333335 -9.333333333333332 -4.0625 -16.270833333333332 -4.0625Zm-183.72916666666669 0h-17.229166666666664v27.416666666666668h15.604166666666666c5.854166666666667 0 10.416666666666666 -1.1041666666666665 13.75 -3.333333333333333 3.2916666666666665 -2.1875 4.958333333333333 -5.6875 4.958333333333333 -10.4375 0 -5.208333333333333 -1.5208333333333333 -8.791666666666666 -4.5625 -10.729166666666666 -3.0416666666666665 -1.9374999999999998 -7.208333333333332 -2.916666666666667 -12.520833333333332 -2.916666666666667Z" fill="#000000" stroke-width="20.8333"></path>
</svg>