<svg role="img" viewBox="0 0 500 500" xmlns="http://www.w3.org/2000/svg" id="Codecademy--Streamline-Simple-Icons" height="500" width="500">
  <desc>
    Codecademy Streamline Icon: https://streamlinehq.com
  </desc>
  <title>Codecademy</title>
  <path d="M496.3958333333333 411.0208333333333h-116.56249999999999c-1.9583333333333333 0 -3.5416666666666665 1.2083333333333333 -3.5416666666666665 3.583333333333333v31.562499999999996c0 1.9583333333333333 1.2083333333333333 3.5416666666666665 3.583333333333333 3.5416666666666665h116.54166666666667c2 0 3.583333333333333 -0.9166666666666665 3.583333333333333 -3.4166666666666665v-31.562499999999996c0 -2.1875 -1.1875 -3.4583333333333335 -3.604166666666666 -3.4583333333333335v-0.29166666666666663zM342.9791666666667 51.3125c0.3333333333333333 0.7083333333333334 0.6249999999999999 1.3958333333333333 0.9791666666666666 2.4999999999999996v391.4583333333333c0 1.2499999999999998 -0.41666666666666663 2 -0.7708333333333333 2.375a3.5 3.5 0 0 1 -2.8125 1.2499999999999998H3.1874999999999996c-0.7916666666666666 0 -1.5624999999999998 0 -2.0208333333333335 -0.41666666666666663A3.770833333333333 3.770833333333333 0 0 1 0 445.6875V53.416666666666664c0 -1.5833333333333333 0.8333333333333333 -2.7916666666666665 2 -3.1249999999999996h338.375c0.8333333333333333 0 2 0.3541666666666667 2.3958333333333335 0.7083333333333334v0.3333333333333333zM37.875 407.7708333333333c0 1.4999999999999998 0.7916666666666666 2.8125 2 3.1666666666666665h263.3958333333333c1.2083333333333333 -0.3958333333333333 2 -1.5833333333333333 2 -3.208333333333333V91.70833333333333c0 -1.5208333333333333 -0.8125 -2.7916666666666665 -2.0416666666666665 -3.1249999999999996H39.89583333333333c-1.1666666666666665 0.41666666666666663 -2 1.5208333333333333 -2 3.1249999999999996l-0.0625 316.04166666666663zm107.79166666666667 -174.47916666666666c13.541666666666666 0 21.125 3.6874999999999996 29.08333333333333 12.916666666666666 1.2083333333333333 1.5416666666666665 3.1874999999999996 1.9374999999999998 4.791666666666667 0.7083333333333334l21.541666666666664 -19.166666666666668c1.5624999999999998 -0.9166666666666665 1.2083333333333333 -3.4166666666666665 0.41666666666666663 -4.666666666666666 -13.229166666666666 -15.916666666666666 -32.375 -25.916666666666664 -57.083333333333336 -25.916666666666664 -33.125 0 -58.125 16.5625 -67.8125 45.95833333333333 -3.4375 10.3125 -4.999999999999999 23.45833333333333 -4.999999999999999 41.25 0 17.791666666666664 1.5624999999999998 30.895833333333332 5.3125 41.25 9.6875 29.6875 34.6875 45.916666666666664 67.8125 45.916666666666664 24.999999999999996 0 44.0625 -9.999999999999998 57.1875 -25.333333333333332 0.9374999999999999 -1.5416666666666665 1.2499999999999998 -3.4375 -0.31249999999999994 -4.708333333333333l-21.604166666666664 -19.0625c-1.5208333333333333 -0.9791666666666666 -3.3958333333333335 -0.9791666666666666 -4.666666666666666 0.5625 -8.125 9.375 -16.5625 14.374999999999998 -30.291666666666664 14.374999999999998 -14.708333333333332 0 -25.9375 -7.187499999999999 -30.624999999999996 -21.562499999999996 -2.8333333333333335 -8.125 -3.4583333333333335 -18.125 -3.4583333333333335 -30.895833333333332 0 -12.812499999999998 0.9374999999999999 -22.25 3.7499999999999996 -30.624999999999996 4.999999999999999 -13.75 15.958333333333332 -21 30.958333333333332 -21z" fill="#000000" stroke-width="20.8333"></path>
</svg>