<?xml version="1.0" encoding="UTF-8"?>
<svg id="logosandtypes_com" data-name="logosandtypes com" xmlns="http://www.w3.org/2000/svg" viewBox="0 0 150 150">
  <defs>
    <style>
      .cls-1 {
        fill: #0052ff;
      }

      .cls-2 {
        fill: none;
      }
    </style>
  </defs>
  <path class="cls-2" d="M0,0H150V150H0V0Z"/>
  <path class="cls-1" d="M75.13,108.8c-18.68,.03-33.84-15.1-33.87-33.78,0,0,0-.02,0-.03,0-18.67,15.16-33.8,33.87-33.8,16.5,0,30.59,11.9,33.36,28.17h34.12c-2.88-34.71-31.98-61.97-67.48-61.97C37.74,7.39,7.39,37.68,7.39,75s30.34,67.61,67.73,67.61,64.6-27.27,67.48-61.97h-34.12c-2.76,16.27-16.86,28.17-33.36,28.17"/>
</svg>