<svg role="img" viewBox="0 0 500 500" xmlns="http://www.w3.org/2000/svg" id="Skillshare--Streamline-Simple-Icons" height="500" width="500">
  <desc>
    Skillshare Streamline Icon: https://streamlinehq.com
  </desc>
  <title>Skillshare</title>
  <path d="M203.81249999999997 126.16666666666666a16 16 0 0 0 -16.104166666666668 15.916666666666666c0 8.770833333333332 7.208333333333332 15.895833333333332 16.104166666666668 15.895833333333332a16 16 0 0 0 16.083333333333332 -15.895833333333332 16 16 0 0 0 -16.083333333333332 -15.916666666666666zM39.479166666666664 168.74999999999997C17.104166666666664 168.74999999999997 2.3125 179.625 2.3125 196.10416666666666c0 13.208333333333332 7.9375 22.083333333333332 21.833333333333332 25.520833333333332l17.416666666666664 4.375c5.166666666666666 1.625 7.249999999999999 4.166666666666667 7.229166666666666 8.125 0 4.375 -4.375 6.8125 -8.833333333333332 7.020833333333333 -6.458333333333333 0.29166666666666663 -11.1875 -3.208333333333333 -11.541666666666668 -8.791666666666666H0c0.41666666666666663 16.666666666666668 16.708333333333332 28.375 41.125 28.375 23.083333333333336 0 38.0625 -10.6875 38.0625 -28.791666666666664 0 -13.208333333333332 -8.3125 -21.541666666666664 -22.020833333333332 -25.166666666666664l-16.875 -4.666666666666666c-5.708333333333333 -1.6875 -7.687499999999999 -4.208333333333333 -7.687499999999999 -7.749999999999999 0 -3.8541666666666665 3.0416666666666665 -6.124999999999999 6.979166666666667 -6.583333333333333 5.708333333333333 -0.6666666666666666 10.125 1.8124999999999998 10.125 7.958333333333333v0.41666666666666663H78.74999999999999v-0.41666666666666663h-0.020833333333333332c0 -17.375 -14.708333333333332 -26.958333333333332 -39.24999999999999 -26.958333333333332zm51.77083333333333 2.4166666666666665v87.29166666666667h27.458333333333332v-37.9375l26.541666666666664 37.916666666666664h33.75l-33.9375 -45.854166666666664 33.416666666666664 -41.1875h-32.5l-27.270833333333332 36.666666666666664v-36.875zm98.83333333333333 0v87.29166666666667h27.458333333333332v-87.29166666666667zm43.416666666666664 0v87.31249999999999h67.04166666666666v-25.916666666666664h-39.416666666666664V171.1875zm82.02083333333333 0v87.31249999999999h67.04166666666666v-25.916666666666664h-39.416666666666664V171.1875zm-276.04166666666663 110.58333333333333c-22.375 0 -37.166666666666664 10.875 -37.166666666666664 27.333333333333332 0 13.229166666666666 7.9375 22.083333333333332 21.833333333333332 25.520833333333332l17.416666666666664 4.375c5.166666666666666 1.625 7.249999999999999 4.166666666666667 7.229166666666666 8.125 0 4.375 -4.375 6.833333333333333 -8.833333333333332 7.041666666666667 -6.458333333333333 0.29166666666666663 -11.1875 -3.2291666666666665 -11.541666666666668 -8.8125H0c0.41666666666666663 16.666666666666668 16.708333333333332 28.375 41.125 28.375 23.083333333333336 0 38.0625 -10.666666666666666 38.0625 -28.791666666666664 0 -13.208333333333332 -8.3125 -21.541666666666664 -22.020833333333332 -25.145833333333332l-16.875 -4.6875c-5.708333333333333 -1.6875 -7.687499999999999 -4.1875 -7.687499999999999 -7.729166666666666 0 -3.8749999999999996 3.0416666666666665 -6.145833333333333 6.979166666666667 -6.604166666666666 5.708333333333333 -0.6666666666666666 10.125 1.8124999999999998 10.125 7.979166666666666v0.3958333333333333H78.74999999999999v-0.41666666666666663h-0.020833333333333332c0 -17.375 -14.708333333333332 -26.958333333333332 -39.24999999999999 -26.958333333333332zm191.45833333333331 0.31249999999999994c-25.3125 0 -41.375 19.854166666666664 -41.375 45.875 0 26.187499999999996 14.999999999999998 45.875 41 45.854166666666664 12.083333333333332 0 22.916666666666668 -5.958333333333332 27.625 -14.624999999999998v12.291666666666666h27.458333333333332v-87.0625h-27.458333333333332v12.479166666666666c-4.6875 -8.854166666666666 -14.624999999999998 -14.812499999999998 -27.270833333333332 -14.812499999999998zm182.31249999999997 0c-28.333333333333332 0 -46.9375 17.333333333333332 -46.9375 45.875 0 29.08333333333333 18.229166666666664 45.875 47.83333333333333 45.875 23.125 0 40.645833333333336 -11.375 43.333333333333336 -28.541666666666668h-27.083333333333332c-2.3541666666666665 5.416666666666667 -7.770833333333333 7.770833333333333 -16.25 7.770833333333333 -12.291666666666666 0 -19.874999999999996 -6.145833333333333 -20.416666666666664 -17.520833333333332h64.3125c0.5416666666666666 -4.875 0.7291666666666667 -7.583333333333333 0.7291666666666667 -12.104166666666664 0 -24.5625 -18.416666666666664 -41.354166666666664 -45.52083333333333 -41.354166666666664zm-59.791666666666664 0.8958333333333333c-10.625 0 -20.937499999999996 6.666666666666666 -23.999999999999996 19.687499999999996v-18.25h-27.645833333333332v87.0625h27.645833333333332v-33.604166666666664c0 -19.3125 7.958333333333333 -29.0625 22.916666666666668 -29.0625a58.33333333333333 58.33333333333333 0 0 1 8.1875 0.5208333333333334l0.14583333333333331 -25.624999999999996a26.666666666666664 26.666666666666664 0 0 0 -7.229166666666666 -0.7291666666666667zM91.24999999999999 284.375v87.31249999999999h27.083333333333332v-30.9375h33.125v30.9375h27.083333333333332V284.375h-27.083333333333332v31.354166666666664H118.33333333333331V284.375zm321.8333333333333 16.270833333333332c11.749999999999998 0 18.25 6.145833333333333 18.4375 17.708333333333332H393.74999999999994c0.16666666666666666 -10.645833333333332 7.416666666666666 -17.708333333333332 19.3125 -17.708333333333332zm-174.58333333333334 4.520833333333333c13.75 0 20.770833333333332 10.291666666666666 20.770833333333332 22.770833333333332 0 12.645833333333332 -7.020833333333333 22.916666666666668 -20.770833333333332 22.916666666666668 -12.833333333333332 0 -20.770833333333332 -9.75 -20.770833333333332 -22.916666666666668 0 -13.208333333333332 7.958333333333333 -22.770833333333332 20.770833333333332 -22.770833333333332zm245.41666666666663 36.270833333333336a16 16 0 0 0 -16.083333333333332 15.916666666666666c0 8.791666666666666 7.187499999999999 15.916666666666666 16.083333333333332 15.916666666666666a16 16 0 0 0 16.083333333333332 -15.916666666666666 16 16 0 0 0 -16.083333333333332 -15.916666666666666z" fill="#000000" stroke-width="20.8333"></path>
</svg>