<?xml version="1.0" standalone="no"?>
<!DOCTYPE svg PUBLIC "-//W3C//DTD SVG 20010904//EN"
 "http://www.w3.org/TR/2001/REC-SVG-20010904/DTD/svg10.dtd">
<svg version="1.0" xmlns="http://www.w3.org/2000/svg"
 width="640.000000pt" height="710.000000pt" viewBox="0 0 640.000000 710.000000"
 preserveAspectRatio="xMidYMid meet">

<g transform="translate(0.000000,710.000000) scale(0.100000,-0.100000)"
fill="#000000" stroke="none">
<path d="M0 3550 l0 -3550 3200 0 3200 0 0 3550 0 3550 -3200 0 -3200 0 0
-3550z m3615 3385 c87 -12 221 -37 310 -59 6 -1 26 -6 45 -10 61 -14 221 -67
325 -108 207 -82 514 -256 658 -372 107 -86 141 -116 246 -219 203 -199 338
-373 480 -620 276 -479 406 -1093 346 -1632 -21 -184 -21 -188 -40 -280 -97
-470 -292 -874 -600 -1242 -57 -68 -194 -210 -248 -258 -38 -33 -76 -67 -85
-75 -60 -55 -239 -183 -371 -264 -72 -46 -290 -152 -396 -194 -284 -112 -518
-170 -815 -202 -86 -9 -110 -16 -130 -34 -46 -43 -105 -42 -147 2 -14 16 -42
22 -128 31 -441 46 -887 196 -1242 418 -114 72 -260 174 -315 222 -226 195
-361 343 -543 596 -93 129 -232 400 -295 575 -6 19 -16 44 -20 55 -16 37 -59
190 -79 276 -87 375 -96 767 -27 1154 45 252 175 616 298 830 59 103 187 300
215 330 10 11 26 30 34 42 69 100 332 365 459 464 196 152 432 291 650 383
192 80 485 160 670 183 19 2 59 7 88 12 29 4 87 9 130 10 42 1 79 5 82 8 8 9
327 -7 445 -22z m-1933 -6213 c28 -16 58 -66 58 -96 0 -12 -10 -16 -40 -16
-34 0 -42 4 -50 24 -16 43 -88 47 -110 6 -16 -30 4 -58 53 -71 92 -25 105 -30
127 -54 32 -34 38 -109 12 -151 -56 -89 -230 -86 -277 5 -8 17 -15 39 -15 51
0 17 6 20 45 20 37 0 45 -3 45 -18 0 -29 21 -42 65 -42 47 0 65 13 65 50 0 30
-25 48 -75 55 -53 6 -104 34 -120 66 -30 57 -11 145 38 170 57 31 128 32 179
1z m546 -19 l-3 -38 -52 -3 -53 -3 0 -180 0 -179 -45 0 -45 0 0 180 0 180 -55
0 -55 0 0 40 0 40 156 0 155 0 -3 -37z m360 -25 c11 -35 46 -133 76 -218 31
-85 56 -156 56 -157 0 -2 -22 -3 -49 -3 -48 0 -49 0 -58 38 l-9 37 -74 0 -75
0 -11 -35 c-11 -33 -15 -35 -58 -38 -25 -2 -46 -1 -46 2 0 3 34 102 76 221
l76 215 38 0 c37 0 37 -1 58 -62z m547 48 c84 -35 101 -163 29 -221 l-25 -20
39 -76 c59 -116 59 -109 -1 -109 l-52 0 -34 78 c-42 95 -48 102 -77 102 -23 0
-24 -2 -24 -90 l0 -90 -45 0 -45 0 0 220 0 220 100 0 c65 0 113 -5 135 -14z
m375 -166 l0 -179 93 -3 92 -3 0 -35 0 -35 -137 -3 -138 -3 0 221 0 220 45 0
45 0 0 -180z m480 -40 l0 -220 -45 0 -45 0 0 220 0 220 45 0 45 0 0 -220z
m336 167 c17 -29 51 -86 75 -127 l44 -75 3 128 3 127 44 0 45 0 0 -221 0 -220
-47 3 -48 3 -66 113 c-80 136 -86 143 -85 100 0 -18 -1 -75 -2 -125 l-2 -93
-40 0 -40 0 0 220 0 220 43 0 c40 -1 43 -3 73 -53z m514 -47 c0 -55 3 -100 8
-100 4 1 38 46 76 100 l70 100 54 0 54 0 -48 -67 c-53 -75 -53 -74 -90 -121
l-26 -32 34 -43 c18 -23 41 -53 51 -67 9 -14 30 -44 46 -67 l31 -43 -53 0
c-50 0 -53 2 -82 43 -16 23 -33 47 -37 52 -46 57 -68 89 -68 96 0 5 -4 9 -10
9 -6 0 -10 -40 -10 -100 l0 -100 -45 0 -45 0 0 220 0 220 45 0 45 0 0 -100z"/>
<path d="M2975 6898 c-509 -58 -997 -258 -1391 -569 -175 -139 -433 -412 -555
-589 -268 -388 -422 -803 -474 -1283 -33 -308 -4 -685 75 -982 86 -320 244
-645 436 -900 33 -42 69 -91 81 -108 70 -96 350 -371 436 -428 19 -12 13 -4
-15 21 -119 105 -331 376 -424 543 -227 406 -318 815 -284 1282 37 535 268
1030 664 1429 129 130 184 176 316 268 243 167 523 295 810 369 131 34 347 69
425 69 50 0 54 2 74 35 11 19 35 44 53 55 62 38 160 7 188 -60 12 -28 16 -30
65 -30 51 0 186 -18 308 -41 105 -20 304 -78 411 -120 213 -85 492 -244 645
-367 74 -60 302 -291 362 -367 59 -75 169 -232 169 -241 0 -3 13 -24 28 -47
38 -57 92 -164 134 -267 97 -236 144 -438 168 -724 32 -378 -73 -854 -265
-1199 -118 -211 -216 -344 -380 -515 -104 -109 -107 -111 -80 -92 11 8 22 18
25 22 3 3 23 21 45 38 76 60 275 260 350 352 29 35 46 58 133 173 61 81 125
190 201 340 143 285 218 536 267 895 17 126 19 518 3 623 -41 277 -54 334
-110 515 -160 511 -475 971 -904 1320 -476 387 -1083 596 -1717 590 -106 0
-229 -5 -273 -10z"/>
<path d="M2947 5935 c-607 -89 -1172 -581 -1366 -1189 -55 -173 -91 -387 -91
-545 0 -142 31 -360 71 -495 90 -310 240 -557 481 -792 107 -104 285 -244 311
-244 4 0 29 -14 57 -31 142 -87 395 -171 620 -204 192 -28 469 -13 657 36 43
11 85 22 93 24 48 10 228 84 310 127 131 69 187 106 319 213 282 227 497 578
584 950 41 178 45 219 43 435 -2 165 -7 225 -24 305 -39 186 -83 308 -169 475
-67 132 -101 185 -183 290 -204 261 -466 453 -775 568 -123 46 -155 54 -304
76 -146 22 -188 21 -196 -4 -3 -11 -21 -31 -39 -45 -60 -46 -152 -28 -190 36
-16 26 -22 29 -69 28 -29 -1 -92 -7 -140 -14z m425 -1594 c125 -86 110 -270
-27 -332 -124 -57 -265 32 -265 167 0 64 13 100 48 138 41 43 79 57 148 53 45
-2 71 -9 96 -26z"/>
<path d="M2253 5736 c-97 -47 -288 -153 -318 -178 -5 -4 -51 -39 -102 -76
-244 -179 -474 -438 -620 -698 -129 -229 -210 -451 -260 -709 -22 -117 -26
-591 -4 -700 21 -110 60 -275 75 -319 223 -646 676 -1129 1321 -1411 183 -80
501 -154 728 -171 98 -6 98 -6 127 21 41 39 104 39 138 0 l23 -28 97 7 c391
28 785 160 1105 370 495 325 822 767 976 1316 49 176 65 311 64 555 0 235 -12
343 -59 530 -68 271 -239 610 -415 826 -82 100 -326 339 -409 401 -158 116
-342 222 -535 307 -41 18 -36 14 94 -73 184 -123 320 -254 448 -429 29 -39 56
-76 61 -82 35 -43 135 -242 176 -347 61 -163 85 -261 111 -457 24 -186 15
-369 -30 -586 -68 -326 -246 -653 -491 -899 -189 -190 -401 -324 -664 -419
-143 -52 -320 -90 -497 -108 -283 -28 -651 45 -928 183 -148 74 -241 133 -355
223 -33 26 -229 222 -258 258 -157 193 -290 467 -353 724 -63 258 -65 582 -5
838 20 87 65 227 77 240 5 5 9 15 9 23 0 18 86 192 135 272 82 135 139 208
258 329 107 109 229 208 343 278 38 23 65 42 59 42 -5 0 -60 -24 -122 -53z"/>
<path d="M2503 530 l-21 -70 44 0 c29 0 44 4 44 13 0 13 -36 116 -43 123 -2 2
-13 -27 -24 -66z"/>
<path d="M3023 662 c-33 -3 -33 -4 -33 -58 l0 -54 38 0 c76 0 101 21 88 75 -7
27 -45 42 -93 37z"/>
</g>
</svg>
