<?xml version="1.0" encoding="UTF-8"?>
<svg id="logosandtypes_com" data-name="logosandtypes com" xmlns="http://www.w3.org/2000/svg" viewBox="0 0 150 150">
  <defs>
    <style>
      .cls-1 {
        fill: none;
      }
    </style>
  </defs>
  <path class="cls-1" d="M0,0H150V150H0V0Z"/>
  <path d="M71.95,9.99C31.18,9.99,13.59,46.28,13.59,46.28l5.18,3.71s-6.52,12.4-6.34,28.3c0,32.46,25.84,63.03,63.87,63.03,34.55,0,63.1-28.12,63.1-62.95,0-45.43-35.23-68.37-67.44-68.37ZM27.77,96.65l-1.51,.55s-2.83-6.26-2.83-13.67c0-21.48,17.64-39.2,39.38-39.2,16.48,0,32.56,10.9,36.58,26.37l-1.46,.55c-7.21-9.52-19.02-17.41-32.98-17.41-25.67,0-39.15,23.33-37.17,42.81Zm60.7,1.66s-4.68,7.36-14.25,7.36-17.23-7.38-17.23-17.31,8.8-17.07,16.7-17.07,14.04,6.32,14.04,13.83c0,6.21-3.99,9.89-3.99,9.89l4.72,3.3Zm-11.11,31.9c-20.4,0-38.81-15.54-38.81-36.84,0-12.3,6.54-20.88,13.87-25.45l1.07,1.16c-2,1.57-7.72,10.76-7.72,19.78,0,16.76,13.15,28.37,29.71,28.37,21.1,0,35.17-17.99,35.17-38.89,0-24.31-21.46-44.94-47.28-44.94-14.28,0-26.4,6.14-33.37,11.56l-1.08-.98c9.11-14.05,24.89-22.92,43.4-22.92,31.85,0,56.57,25.67,56.57,55.51,0,31.63-23.79,53.63-51.52,53.63Z"/>
</svg>