<svg role="img" viewBox="0 0 500 500" xmlns="http://www.w3.org/2000/svg" id="Whatsapp--Streamline-Simple-Icons" height="500" width="500">
  <desc>
    Whatsapp Streamline Icon: https://streamlinehq.com
  </desc>
  <title>WhatsApp</title>
  <path d="M364 299.625c-6.187499999999999 -3.1041666666666665 -36.625 -18.0625 -42.29166666666666 -20.145833333333332 -5.6875 -2.0625 -9.812499999999998 -3.083333333333333 -13.958333333333334 3.1249999999999996 -4.104166666666667 6.187499999999999 -15.979166666666666 20.125 -19.583333333333332 24.249999999999996 -3.604166666666666 4.145833333333333 -7.229166666666666 4.645833333333333 -13.416666666666666 1.5624999999999998 -6.187499999999999 -3.1249999999999996 -26.14583333333333 -9.645833333333334 -49.791666666666664 -30.729166666666668 -18.395833333333332 -16.416666666666668 -30.833333333333332 -36.68749999999999 -34.4375 -42.895833333333336 -3.604166666666666 -6.187499999999999 -0.37499999999999994 -9.541666666666666 2.7083333333333335 -12.624999999999998 2.7916666666666665 -2.7708333333333335 6.208333333333333 -7.229166666666666 9.291666666666666 -10.833333333333334 3.1041666666666665 -3.6249999999999996 4.125 -6.208333333333333 6.208333333333333 -10.354166666666666 2.0625 -4.125 1.0416666666666667 -7.729166666666666 -0.5208333333333334 -10.833333333333334 -1.5624999999999998 -3.1041666666666665 -13.9375 -33.583333333333336 -19.083333333333332 -45.979166666666664 -5.041666666666666 -12.062499999999998 -10.145833333333332 -10.416666666666666 -13.9375 -10.625 -3.604166666666666 -0.16666666666666666 -7.729166666666666 -0.20833333333333331 -11.874999999999998 -0.20833333333333331 -4.125 0 -10.833333333333334 1.5416666666666665 -16.5 7.749999999999999 -5.666666666666667 6.187499999999999 -21.666666666666668 21.166666666666664 -21.666666666666668 51.645833333333336 0 30.458333333333332 22.187499999999996 59.89583333333333 25.270833333333332 64.04166666666666 3.1041666666666665 4.125 43.666666666666664 66.66666666666667 105.77083333333333 93.47916666666666 14.770833333333332 6.374999999999999 26.291666666666664 10.1875 35.291666666666664 13.020833333333332 14.833333333333332 4.729166666666667 28.333333333333332 4.0625 38.979166666666664 2.458333333333333 11.895833333333332 -1.7708333333333333 36.625 -14.979166666666666 41.79166666666666 -29.4375 5.166666666666666 -14.458333333333332 5.166666666666666 -26.854166666666664 3.604166666666666 -29.4375 -1.5416666666666665 -2.583333333333333 -5.666666666666667 -4.125 -11.874999999999998 -7.229166666666666m-112.9375 154.22916666666666h-0.08333333333333333a205.62499999999997 205.62499999999997 0 0 1 -104.81249999999999 -28.70833333333333l-7.520833333333333 -4.458333333333333 -77.9375 20.458333333333332 20.791666666666664 -76 -4.895833333333333 -7.791666666666666a205.41666666666666 205.41666666666666 0 0 1 -31.458333333333332 -109.58333333333333c0.020833333333333332 -113.54166666666666 92.41666666666666 -205.91666666666666 206 -205.91666666666666 55 0 106.70833333333333 21.458333333333332 145.58333333333334 60.375a204.68749999999997 204.68749999999997 0 0 1 60.27083333333333 145.70833333333331c-0.0625 113.54166666666666 -92.4375 205.91666666666666 -205.93749999999997 205.91666666666666m175.27083333333334 -381.1875A246.14583333333331 246.14583333333331 0 0 0 251.04166666666666 0C114.47916666666666 0 3.333333333333333 111.14583333333333 3.270833333333333 247.74999999999997c0 43.666666666666664 11.395833333333334 86.29166666666667 33.083333333333336 123.85416666666667L1.1875 500l131.35416666666666 -34.45833333333333a247.54166666666666 247.54166666666666 0 0 0 118.39583333333333 30.166666666666664h0.10416666666666666c136.54166666666666 0 247.70833333333334 -111.14583333333333 247.77083333333334 -247.77083333333334a246.27083333333331 246.27083333333331 0 0 0 -72.5 -175.27083333333334Z" fill="#000000" stroke-width="20.8333"></path>
</svg>